<svg width="256" height="256" viewBox="0 0 101 122" fill="none" xmlns="http://www.w3.org/2000/svg" stroke-width="1px" stroke-linecap="round" stroke-linejoin="round"><path d="M77.4197 65.8302C77.0897 64.9402 76.6597 64.0402 76.1297 63.1302C75.9697 62.8602 75.8197 62.6002 75.6497 62.3502C74.2697 60.1802 72.6497 58.5602 70.7897 57.4902L68.0897 55.9302L40.5097 40.0202L35.1197 30.7202C34.4297 29.5202 33.6197 28.4402 32.7097 27.4802C31.7997 26.5202 30.8297 25.7402 29.8197 25.1602L22.6797 21.0402L10.2397 13.8602C8.36969 12.7802 6.74969 12.5302 5.36969 13.0902L4.89969 13.3202C3.41969 14.1702 2.67969 15.7802 2.67969 18.1702V70.2702C2.67969 72.6602 3.41969 75.1302 4.89969 77.6902C6.37969 80.2502 8.15969 82.1302 10.2397 83.3302L70.7897 118.28C72.8697 119.48 74.6497 119.66 76.1297 118.82C77.6097 117.97 78.3497 116.35 78.3497 113.97V70.5502C78.3497 69.0102 78.0397 67.4402 77.4197 65.8302ZM62.1297 85.9802C61.3997 86.4002 60.5097 86.2902 59.4297 85.6802L55.6497 83.4902V87.8302C55.6497 87.8302 55.6497 87.9402 55.6397 87.9902C55.6197 89.1302 55.2597 89.9002 54.5597 90.3002C53.8397 90.7102 52.9397 90.6102 51.8697 89.9902C50.7897 89.3702 49.8997 88.4402 49.1697 87.1902C48.4697 85.9902 48.1097 84.8002 48.0897 83.6302C48.0797 83.5702 48.0797 83.5202 48.0797 83.4602V79.1202L44.2997 76.9402C43.2297 76.3202 42.3297 75.3802 41.5997 74.1302C40.8797 72.8802 40.5097 71.6402 40.5097 70.4102C40.5097 69.1802 40.8797 68.3602 41.5997 67.9402C42.3297 67.5302 43.2297 67.6302 44.2997 68.2502L48.0797 70.4402V66.1002C48.0797 64.8702 48.4397 64.0402 49.1697 63.6302C49.8997 63.2202 50.7897 63.3202 51.8697 63.9402C52.9397 64.5602 53.8397 65.4902 54.5597 66.7402C54.6297 66.8602 54.6997 66.9802 54.7597 67.1002C55.3597 68.2302 55.6497 69.3502 55.6497 70.4602V74.8102L56.1397 75.0902L59.4297 76.9902C60.5097 77.6102 61.3997 78.5502 62.1297 79.8002C62.1997 79.9202 62.2597 80.0302 62.3297 80.1502C62.9197 81.2802 63.2197 82.4002 63.2197 83.5202C63.2197 84.7502 62.8597 85.5702 62.1297 85.9802Z" stroke="black" stroke-linejoin="round"/><path d="M63.2198 83.5202C63.2198 84.7502 62.8599 85.5702 62.1299 85.9802C61.3999 86.4002 60.5099 86.2902 59.4299 85.6802L55.6499 83.4902L62.3299 80.1502C62.9199 81.2802 63.2198 82.4002 63.2198 83.5202Z" stroke="black" stroke-linejoin="round"/><path d="M54.7596 67.1002L48.0796 70.4402V66.1002C48.0796 64.8702 48.4396 64.0402 49.1696 63.6302C49.8996 63.2202 50.7896 63.3202 51.8696 63.9402C52.9396 64.5602 53.8396 65.4902 54.5596 66.7402C54.6296 66.8602 54.6996 66.9802 54.7596 67.1002Z" stroke="black" stroke-linejoin="round"/><path d="M56.1398 75.0902L48.0798 79.1202L44.2997 76.9402C43.2297 76.3202 42.3297 75.3802 41.5997 74.1302C40.8797 72.8802 40.5098 71.6402 40.5098 70.4102C40.5098 69.1802 40.8797 68.3602 41.5997 67.9402C42.3297 67.5302 43.2297 67.6302 44.2997 68.2502L48.0798 70.4402L54.7598 67.1002C55.3598 68.2302 55.6498 69.3502 55.6498 70.4602V74.8102L56.1398 75.0902Z" stroke="black" stroke-linejoin="round"/><path d="M62.3296 80.1502L55.6496 83.4902V87.8302C55.6496 87.8302 55.6496 87.9402 55.6396 87.9902C55.6196 89.1302 55.2596 89.9002 54.5596 90.3002C53.8396 90.7102 52.9396 90.6102 51.8696 89.9902C50.7896 89.3702 49.8996 88.4402 49.1696 87.1902C48.4696 85.9902 48.1096 84.8002 48.0896 83.6302C48.0796 83.5702 48.0796 83.5202 48.0796 83.4602V79.1202L56.1396 75.0902L59.4296 76.9902C60.5096 77.6102 61.3996 78.5502 62.1296 79.8002C62.1996 79.9202 62.2596 80.0302 62.3296 80.1502Z" stroke="black" stroke-linejoin="round"/><path d="M98.3497 60.5502V103.97C98.3497 106.35 97.6098 107.97 96.1298 108.82L95.6597 109.05L76.1298 118.82C77.6098 117.97 78.3497 116.35 78.3497 113.97V70.5502C78.3497 69.0102 78.0397 67.4402 77.4197 65.8302C77.0897 64.9402 76.6598 64.0402 76.1298 63.1302C75.9698 62.8602 75.8198 62.6002 75.6498 62.3502C74.2698 60.1802 72.6497 58.5602 70.7897 57.4902L68.0898 55.9302L40.5098 40.0202L60.5098 30.0202L90.7897 47.4902C92.8697 48.6902 94.6498 50.5702 96.1298 53.1302C97.6098 55.6902 98.3497 58.1602 98.3497 60.5502Z" stroke="black" stroke-linejoin="round"/><path d="M60.5096 30.0202L40.5096 40.0202L35.1196 30.7202C34.4296 29.5202 33.6197 28.4402 32.7097 27.4802C31.7997 26.5202 30.8296 25.7402 29.8196 25.1602L22.6796 21.0402L10.2396 13.8602C8.36962 12.7802 6.74963 12.5302 5.36963 13.0902L24.8997 3.32016C26.3797 2.48016 28.1596 2.65016 30.2396 3.86016L49.8196 15.1602C50.8296 15.7402 51.7997 16.5202 52.7097 17.4802C53.6197 18.4402 54.4296 19.5202 55.1196 20.7202L60.5096 30.0202Z" stroke="black" stroke-linejoin="round"/></svg>