<svg width="176" height="162" viewBox="0 0 176 162" fill="none" xmlns="http://www.w3.org/2000/svg">
<path d="M0 92C2.12538e-06 67.6001 9.65771 44.1995 26.8485 26.9462C44.0394 9.69283 67.3552 -2.90966e-07 91.6667 0V10.12C70.0294 10.12 49.2784 18.7466 33.9785 34.1021C18.6787 49.4576 10.0833 70.2841 10.0833 92H0Z" fill="#231F20"/>
<path d="M154.917 92C154.917 82.4555 153.055 73.0045 149.439 64.1866C145.823 55.3686 140.523 47.3564 133.841 40.6075C127.159 33.8585 119.226 28.5049 110.496 24.8524C101.765 21.1999 92.408 19.32 82.9583 19.32V28.7684C91.1796 28.7684 99.3203 30.4039 106.916 33.5816C114.511 36.7593 121.413 41.4169 127.226 47.2885C133.039 53.1601 137.651 60.1307 140.797 67.8023C143.943 75.4739 145.562 83.6963 145.562 92H154.917Z" fill="#231F20"/>
<path d="M82.5 1.84H91.6667V92H82.5V1.84Z" fill="#231F20"/>
<path d="M133.85 36.7619C131.172 33.7126 131.463 29.0618 134.502 26.3739L151.474 45.6979C148.436 48.3858 143.802 48.0929 141.124 45.0436L133.85 36.7619Z" fill="#231F20"/>
<path d="M135.548 23.5835C132.572 20.1955 132.897 15.0278 136.273 12.0413C136.694 11.6679 137.338 11.7086 137.71 12.1321L165.458 43.7254C165.83 44.1489 165.79 44.7949 165.368 45.1682C161.992 48.1548 156.843 47.8293 153.867 44.4412L135.548 23.5835Z" fill="#231F20"/>
<path d="M1.83333 82.8H176V92H1.83333V82.8Z" fill="#231F20"/>
<path d="M1.93645 161V153.802L7.80168 152.621V113.964L1.93645 112.783V105.547H7.80168H28.5966C32.9384 105.547 36.6835 106.309 39.832 107.832C43.0058 109.33 45.4433 111.438 47.1445 114.154C48.8456 116.846 49.6962 119.994 49.6962 123.6C49.6962 127.18 48.8456 130.315 47.1445 133.007C45.4433 135.698 43.0058 137.793 39.832 139.291C36.6835 140.789 32.9384 141.538 28.5966 141.538H19.9892V152.621L25.8163 153.802V161H1.93645ZM19.9892 132.169H28.5966C31.5419 132.169 33.7636 131.369 35.2616 129.77C36.7597 128.17 37.5087 126.139 37.5087 123.676C37.5087 121.111 36.7597 119.004 35.2616 117.354C33.7636 115.703 31.5419 114.878 28.5966 114.878H19.9892V132.169ZM63.6631 161V153.802L69.5664 152.469V114.154L63.6631 112.783V105.547H69.5664H88.7998C93.7764 105.547 98.1689 106.715 101.978 109.051C105.786 111.361 108.77 114.573 110.928 118.687C113.086 122.774 114.165 127.484 114.165 132.816V133.769C114.165 139.075 113.099 143.785 110.966 147.898C108.833 151.986 105.862 155.198 102.054 157.534C98.2451 159.845 93.8525 161 88.876 161H63.6631ZM81.7539 151.745H88.2285C91.1992 151.745 93.6875 150.983 95.6934 149.46C97.7246 147.937 99.2607 145.829 100.302 143.138C101.368 140.421 101.901 137.298 101.901 133.769V132.778C101.901 129.224 101.368 126.101 100.302 123.409C99.2607 120.718 97.7246 118.623 95.6934 117.125C93.6875 115.602 91.1992 114.84 88.2285 114.84H81.7539V151.745ZM153.154 161.8C148.863 161.8 145.004 161.355 141.576 160.467C138.149 159.578 134.759 157.979 131.407 155.668V141.767H140.815L141.995 149.422C142.96 150.361 144.458 151.136 146.489 151.745C148.521 152.354 150.742 152.659 153.154 152.659C155.008 152.659 156.569 152.418 157.839 151.936C159.108 151.428 160.073 150.717 160.733 149.803C161.394 148.863 161.724 147.759 161.724 146.489C161.724 145.271 161.419 144.191 160.81 143.252C160.226 142.287 159.248 141.398 157.877 140.586C156.506 139.773 154.652 138.974 152.316 138.187C147.746 136.79 143.976 135.317 141.005 133.769C138.06 132.194 135.851 130.341 134.378 128.208C132.931 126.05 132.207 123.409 132.207 120.286C132.207 117.265 133.058 114.611 134.759 112.326C136.485 110.016 138.847 108.2 141.843 106.88C144.839 105.56 148.292 104.874 152.202 104.823C156.595 104.722 160.48 105.191 163.857 106.232C167.233 107.273 170.179 108.771 172.692 110.727V123.638H163.628L162.105 116.135C161.191 115.602 159.921 115.132 158.296 114.726C156.696 114.319 154.919 114.116 152.964 114.116C151.288 114.116 149.803 114.357 148.508 114.84C147.238 115.297 146.223 115.995 145.461 116.935C144.725 117.849 144.357 118.979 144.357 120.324C144.357 121.416 144.674 122.394 145.309 123.257C145.943 124.12 147.035 124.958 148.584 125.771C150.133 126.558 152.278 127.434 155.021 128.398C161.216 130.176 165.913 132.461 169.112 135.254C172.337 138.047 173.949 141.767 173.949 146.413C173.949 149.638 173.073 152.405 171.321 154.716C169.595 157.001 167.17 158.753 164.047 159.972C160.924 161.19 157.293 161.8 153.154 161.8Z" fill="#231F20"/>
</svg>
